{"title":"Jim Baxter Story. [A  Tribute To The Legend].mp4","uid":9145984,"size":644311296,"categoryP":"video","categoryS":"movies","magnet":"?xt=urn:btih:f1e3cdeb6b18199ed7b945bdb583b72cd6f7bf8f&amp;dn=Jim+Baxter+Story.+%5BA++Tribute+To+The+Legend%5D.mp4&amp;tr=udp%3A%2F%2Ftracker.openbittorrent.com%3A80&amp;tr=udp%3A%2F%2Fopen.demonii.com%3A1337&amp;tr=udp%3A%2F%2Ftracker.coppersurfer.tk%3A6969&amp;tr=udp%3A%2F%2Fexodus.desync.com%3A6969","seeders":1,"leechers":0,"uploader":"CATRIX02","files":-1,"time":1383595702,"description":"One Of the Greatest Glasgow Rangers Player Ever.\n &lt;a href=&quot;\nhttp://t1.someimage.com/r7n6iKy.jpg&quot; rel=&quot;nofollow&quot; target=&quot;_NEW&quot;&gt;\nhttp://t1.someimage.com/r7n6iKy.jpg&lt;/a&gt; &lt;a href=&quot;\nhttp://t1.someimage.com/QW6erub.jpg&quot; rel=&quot;nofollow&quot; target=&quot;_NEW&quot;&gt;\nhttp://t1.someimage.com/QW6erub.jpg&lt;/a&gt; &lt;a href=&quot;\nhttp://t1.someimage.com/pGvE5UE.jpg&quot; rel=&quot;nofollow&quot; target=&quot;_NEW&quot;&gt;\nhttp://t1.someimage.com/pGvE5UE.jpg&lt;/a&gt; &lt;a href=&quot;\nhttp://t1.someimage.com/6Je0J5X.jpg&quot; rel=&quot;nofollow&quot; target=&quot;_NEW&quot;&gt;\nhttp://t1.someimage.com/6Je0J5X.jpg&lt;/a&gt;\n\n\nComplete name                  :Jim Baxter Story. [A  Tribute To The Legend]_mp4\nFormat                                   : MPEG-4\nFormat profile                           : Base Media\nCodec ID                                 : isom\nFile size                                : 613 MiB\nDuration                                 : 1h 9mn\nOverall bit rate                         : 1 226 Kbps\nMovie name                               : Jim_Baxter\nWriting application                      : Lavf54.46.100\n\nID                                       : 1\nFormat                                   : MPEG-4 Visual\nFormat settings, BVOP                    : No\nFormat settings, QPel                    : No\nFormat settings, GMC                     : No warppoints\nFormat settings, Matrix                  : Default (H.263)\nCodec ID                                 : 20\nDuration                                 : 1h 9mn\nBit rate mode                            : Constant\nBit rate                                 : 1 092 Kbps\nWidth                                    : 720 pixels\nHeight                                   : 540 pixels\nDisplay aspect ratio                     : 4:3\nFrame rate mode                          : Constant\nFrame rate                               : 23.976 fps\nColor space                              : YUV\nChroma subsampling                       : 4:2:0\nBit depth                                : 8 bits\nScan type                                : Progressive\nCompression mode                         : Lossy\nBits/(Pixel*Frame)                       : 0.117\nStream size                              : 546 MiB (89%)\nWriting library                          : Lavc54.79.100\n\nID                                       : 2\nFormat                                   : AAC\nFormat/Info                              : Advanced Audio Codec\nFormat profile                           : LC\nCodec ID                                 : 40\nDuration                                 : 1h 9mn\nBit rate mode                            : Constant\nBit rate                                 : 132 Kbps\nChannel(s)                               : 2 channels\nChannel positions                        : Front: L R\nSampling rate                            : 44.1 KHz\nCompression mode                         : Lossy\nStream size                              : 64.9 MiB (11%)","torrent":{"xt":"urn:btih:f1e3cdeb6b18199ed7b945bdb583b72cd6f7bf8f","amp;dn":"Jim+Baxter+Story.+%5BA++Tribute+To+The+Legend%5D.mp4","amp;tr":["udp%3A%2F%2Ftracker.openbittorrent.com%3A80","udp%3A%2F%2Fopen.demonii.com%3A1337","udp%3A%2F%2Ftracker.coppersurfer.tk%3A6969","udp%3A%2F%2Fexodus.desync.com%3A6969"],"infoHash":"f1e3cdeb6b18199ed7b945bdb583b72cd6f7bf8f","infoHashBuffer":{"type":"Buffer","data":[241,227,205,235,107,24,25,158,215,185,69,189,181,131,183,44,214,247,191,143]},"announce":[],"urlList":[]}}